<svg width="31" height="25" viewBox="0 0 31 25" fill="none" xmlns="http://www.w3.org/2000/svg">
<path fill-rule="evenodd" clip-rule="evenodd" d="M2 0.5C0.895431 0.5 0 1.39543 0 2.5V22.5C0 23.6046 0.895431 24.5 2 24.5H18C19.1046 24.5 20 23.6046 20 22.5V2.5C20 1.39543 19.1046 0.5 18 0.5H2ZM7 8.5C8.10457 8.5 9 7.60457 9 6.5C9 5.39543 8.10457 4.5 7 4.5C5.89543 4.5 5 5.39543 5 6.5C5 7.60457 5.89543 8.5 7 8.5ZM13 8.5C14.1046 8.5 15 7.60457 15 6.5C15 5.39543 14.1046 4.5 13 4.5C11.8954 4.5 11 5.39543 11 6.5C11 7.60457 11.8954 8.5 13 8.5ZM9 12.5C9 13.6046 8.10457 14.5 7 14.5C5.89543 14.5 5 13.6046 5 12.5C5 11.3954 5.89543 10.5 7 10.5C8.10457 10.5 9 11.3954 9 12.5ZM13 14.5C14.1046 14.5 15 13.6046 15 12.5C15 11.3954 14.1046 10.5 13 10.5C11.8954 10.5 11 11.3954 11 12.5C11 13.6046 11.8954 14.5 13 14.5ZM9 18.5C9 19.6046 8.10457 20.5 7 20.5C5.89543 20.5 5 19.6046 5 18.5C5 17.3954 5.89543 16.5 7 16.5C8.10457 16.5 9 17.3954 9 18.5ZM13 20.5C14.1046 20.5 15 19.6046 15 18.5C15 17.3954 14.1046 16.5 13 16.5C11.8954 16.5 11 17.3954 11 18.5C11 19.6046 11.8954 20.5 13 20.5Z" fill="#4158C5"/>
<path fill-rule="evenodd" clip-rule="evenodd" d="M31 11.5C31 10.3954 30.1046 9.5 29 9.5H23C21.8954 9.5 21 10.3954 21 11.5V22.5C21 23.6046 21.8954 24.5 23 24.5H29C30.1046 24.5 31 23.6046 31 22.5L31 11.5ZM26 15.5C27.1046 15.5 28 14.6046 28 13.5C28 12.3954 27.1046 11.5 26 11.5C24.8954 11.5 24 12.3954 24 13.5C24 14.6046 24.8954 15.5 26 15.5ZM26 21.5C27.1046 21.5 28 20.6046 28 19.5C28 18.3954 27.1046 17.5 26 17.5C24.8954 17.5 24 18.3954 24 19.5C24 20.6046 24.8954 21.5 26 21.5Z" fill="#4158C5"/>
</svg>
